<svg xmlns="http://www.w3.org/2000/svg" viewBox="0 0 47.61 59.5"><defs><style>.cls-1,.cls-2{fill:none;stroke-linecap:round;stroke-linejoin:round;stroke-width:3px;}.cls-1{stroke:#42a7f8;}.cls-2{stroke:#6078ea;}.cls-3{fill:#6078ea;}.cls-4{fill:#42a7f8;}</style></defs><title>アセット 7</title><g id="レイヤー_2" data-name="レイヤー 2"><g id="Icons_-_60px" data-name="Icons - 60px"><path class="cls-1" d="M35.87,15.67A14.19,14.19,0,1,1,21.68,1.52"/><path class="cls-2" d="M21.68,1.51A13.73,13.73,0,0,1,35.87,15.16"/><path class="cls-3" d="M23.61,14.19c-.11-1.49-.7-2.26-1.7-2.26a1.08,1.08,0,0,0-1.1,1.15c0,.75.49,1.2,2.18,1.88,2.45,1,3.34,2,3.34,3.66A3.56,3.56,0,0,1,23,22.42v1.4h-1.7V22.39A4,4,0,0,1,17.62,19l2.59-.71c.23,1.44.94,2.15,2.16,2.15a1.2,1.2,0,0,0,1.36-1.25c0-.79-.54-1.27-2.27-2-2.4-1.06-3.28-2-3.28-3.57a3.37,3.37,0,0,1,3.08-3.42V8.69H23v1.44a3.68,3.68,0,0,1,3.25,3.49Z"/><path class="cls-4" d="M46,31.83a4.81,4.81,0,0,0-6.8.05l-7.59,7.57a4.25,4.25,0,0,1-2.91.9V37.82a2.52,2.52,0,0,0-2.53-2.52H13.52A5.08,5.08,0,0,0,10,37.06l-2.4,3.21a3.81,3.81,0,0,0-5,.33l-1.5,1.49a3.78,3.78,0,0,0,0,5.35l11,11a3.8,3.8,0,0,0,5.37,0l1.48-1.48a3.74,3.74,0,0,0,.15-5.17c.67-.63,1.49-1.29,2-1.29H31.23a6.78,6.78,0,0,0,4.7-1.64l10.12-10.1a4.9,4.9,0,0,0,1.56-3.59A4.54,4.54,0,0,0,46,31.83Zm-1.74,5.1L34.14,47a4.18,4.18,0,0,1-2.91.89H21.09a6.11,6.11,0,0,0-3.8,2L9.38,42,12,38.58a2.79,2.79,0,0,1,1.52-.76H26.17v2.53H23.64v2.52H28.7a6.73,6.73,0,0,0,4.69-1.63L41,33.66A2.31,2.31,0,0,1,42.66,33a2.35,2.35,0,0,1,1.65.73,2.09,2.09,0,0,1,.76,1.48A2.44,2.44,0,0,1,44.26,36.93Z"/></g></g></svg>