<svg xmlns="http://www.w3.org/2000/svg" viewBox="0 0 48 60"><defs><style>.cls-1{fill:none;stroke:#6078ea;stroke-width:4px;}.cls-1,.cls-2{stroke-miterlimit:10;}.cls-2,.cls-3{fill:#42a7f8;}.cls-2{stroke:#42a7f8;stroke-width:2px;}</style></defs><title>アセット 1</title><g id="レイヤー_2" data-name="レイヤー 2"><g id="Icons_-_60px" data-name="Icons - 60px"><rect class="cls-1" x="14" y="39" width="21" height="19" rx="1.43"/><path class="cls-2" d="M44.7,59H3.3A2.65,2.65,0,0,1,1,56.1V3.9A2.65,2.65,0,0,1,3.3,1H44.7A2.65,2.65,0,0,1,47,3.9V56.1A2.65,2.65,0,0,1,44.7,59ZM3.3,2.93a.9.9,0,0,0-.77,1V56.1a.9.9,0,0,0,.77,1H44.7a.9.9,0,0,0,.77-1V3.9a.9.9,0,0,0-.77-1Z"/><rect class="cls-3" x="9" y="9" width="6" height="6" rx="3"/><rect class="cls-3" x="21" y="9" width="6" height="6" rx="3"/><rect class="cls-3" x="33" y="9" width="6" height="6" rx="3"/><rect class="cls-3" x="9" y="22" width="6" height="6" rx="3"/><rect class="cls-3" x="21" y="22" width="6" height="6" rx="3"/><rect class="cls-3" x="33" y="22" width="6" height="6" rx="3"/></g></g></svg>