<svg xmlns="http://www.w3.org/2000/svg" viewBox="0 0 58.14 59"><defs><style>.cls-1{fill:#42a7f8;stroke:#42a7f8;stroke-miterlimit:10;}.cls-2{fill:#6078ea;}</style></defs><title>アセット 4</title><g id="レイヤー_2" data-name="レイヤー 2"><g id="Icons_-_60px" data-name="Icons - 60px"><path class="cls-1" d="M42.07,4.65l-.19,0A25.29,25.29,0,0,1,23.55,1.43L22.27.64a1,1,0,0,0-1,0L20,1.43A25.3,25.3,0,0,1,1.66,4.67a1,1,0,0,0-1.14.75,1.36,1.36,0,0,0,0,.2V35.34A21.46,21.46,0,0,0,3.44,46.2,20.71,20.71,0,0,0,13,54.76l8.35,3.66a.94.94,0,0,0,.77,0l8.36-3.66c.47-.21.93-.43,1.38-.67A1,1,0,0,0,31,52.38c-.41.22-.83.42-1.25.61l-8,3.49-8-3.49a18.79,18.79,0,0,1-8.7-7.76,19.59,19.59,0,0,1-2.68-9.9V6.78A27.22,27.22,0,0,0,21,3.07l.78-.47.77.47A27.22,27.22,0,0,0,41.1,6.78V35.33a1,1,0,0,0,1.94,0V5.62A1,1,0,0,0,42.07,4.65Z"/><path class="cls-1" d="M21.29,10a.76.76,0,0,0-1.08-.37l-.06,0A15.88,15.88,0,0,1,7.94,12a.82.82,0,0,0-.94.7,1.1,1.1,0,0,0,0,.18V34.21a16.53,16.53,0,0,0,2,7.93,14.4,14.4,0,0,0,6.5,6.22.77.77,0,0,0,1-.48.94.94,0,0,0-.43-1.17,12.76,12.76,0,0,1-5.76-5.51,14.49,14.49,0,0,1-1.77-7V13.91A17.36,17.36,0,0,0,21,11.2,1,1,0,0,0,21.29,10Z"/><path class="cls-2" d="M57.87,37.6l-3.78-3.78a1,1,0,0,0-1.34,0L41.14,45.43,38,42.32a.94.94,0,0,0-1.33,0L32.92,46.1a1,1,0,0,0,0,1.34L40.47,55a.94.94,0,0,0,1.34,0L57.87,38.93A.94.94,0,0,0,57.87,37.6Z"/></g></g></svg>