<svg xmlns="http://www.w3.org/2000/svg" viewBox="0 0 55.52 59"><defs><style>.cls-1{fill:none;stroke:#42a7f8;stroke-linecap:round;stroke-linejoin:round;stroke-width:4px;}.cls-2,.cls-3{fill:#6078ea;}.cls-2{stroke:#6078ea;stroke-miterlimit:10;}</style></defs><title>アセット 8</title><g id="レイヤー_2" data-name="レイヤー 2"><g id="Icons_-_60px" data-name="Icons - 60px"><path class="cls-1" d="M2,32.21,6,29A22.19,22.19,0,1,0,28.15,6.85"/><line class="cls-1" x1="9.92" y1="32.21" x2="5.96" y2="29.04"/><path class="cls-2" d="M10.94,8.81h0a.87.87,0,0,0,1.25.1A25.14,25.14,0,0,1,45,8.14.89.89,0,0,0,46.27,8h0a1,1,0,0,0-.15-1.37A26.88,26.88,0,0,0,11,7.43,1,1,0,0,0,10.94,8.81Z"/><path class="cls-3" d="M52.61,19.21h0A1.6,1.6,0,0,1,53,17h0a1.58,1.58,0,0,1,2.2.44h0a1.58,1.58,0,0,1-.44,2.2h0A1.58,1.58,0,0,1,52.61,19.21Z"/><path class="cls-3" d="M48.46,12.21h0a1.59,1.59,0,0,1,0-2.25h0a1.59,1.59,0,0,1,2.25,0h0a1.59,1.59,0,0,1,0,2.25h0A1.59,1.59,0,0,1,48.46,12.21Z"/><path class="cls-2" d="M46.15,50.19h0a.87.87,0,0,0-1.25-.1,25.14,25.14,0,0,1-32.82.77.89.89,0,0,0-1.26.15h0A1,1,0,0,0,11,52.38a26.89,26.89,0,0,0,35.1-.81A1,1,0,0,0,46.15,50.19Z"/><path class="cls-3" d="M4.48,39.79h0A1.59,1.59,0,0,1,4,42H4a1.58,1.58,0,0,1-2.2-.44h0a1.58,1.58,0,0,1,.44-2.2h0A1.58,1.58,0,0,1,4.48,39.79Z"/><path class="cls-3" d="M8.63,46.79h0a1.59,1.59,0,0,1,0,2.25h0a1.59,1.59,0,0,1-2.25,0h0a1.59,1.59,0,0,1,0-2.25h0A1.59,1.59,0,0,1,8.63,46.79Z"/><path class="cls-3" d="M31.05,25.85c-.18-2.44-1.15-3.71-2.81-3.71A1.79,1.79,0,0,0,26.43,24c0,1.25.82,2,3.6,3.1,4,1.63,5.5,3.23,5.5,6A5.87,5.87,0,0,1,30,39.4v2.31H27.17V39.35a6.59,6.59,0,0,1-6-5.57l4.26-1.17C25.82,35,27,36.15,29,36.15a2,2,0,0,0,2.24-2.06c0-1.3-.89-2.09-3.75-3.36-3.95-1.75-5.4-3.33-5.4-5.87,0-3,2-5.14,5.07-5.64V16.8H30v2.36c3,.44,4.89,2.45,5.35,5.75Z"/></g></g></svg>