<svg xmlns="http://www.w3.org/2000/svg" viewBox="0 0 44.5 59"><defs><style>.cls-1{fill:#42a7f8;stroke:#42a7f8;stroke-miterlimit:10;}.cls-2{fill:#6078ea;}</style></defs><title>アセット 3</title><g id="レイヤー_2" data-name="レイヤー 2"><g id="Icons_-_60px" data-name="Icons - 60px"><path class="cls-1" d="M42.66,18H27.34a1.09,1.09,0,0,1-1.09-1.09V1.59A1.09,1.09,0,0,1,28.12.82L43.29,16a1.1,1.1,0,0,1-.63,2Z"/><path class="cls-1" d="M41.77,58.5h-39A2.23,2.23,0,0,1,.5,56.27V2.73A2.23,2.23,0,0,1,2.73.5H27.27a1.12,1.12,0,0,1,0,2.23H2.73V56.27h39v-39a1.12,1.12,0,0,1,2.23,0v39A2.23,2.23,0,0,1,41.77,58.5Z"/><path class="cls-2" d="M32.07,32.5H7.44c-.38,0-.69-.45-.69-1s.31-1,.69-1H32.07c.37,0,.68.45.68,1S32.44,32.5,32.07,32.5Z"/><path class="cls-2" d="M24.28,40.5H7.22c-.26,0-.47-.45-.47-1s.21-1,.47-1H24.28c.26,0,.47.45.47,1S24.54,40.5,24.28,40.5Z"/><path class="cls-2" d="M23.86,48.5H7.44c-.38,0-.69-.45-.69-1s.31-1,.69-1H23.86c.37,0,.68.45.68,1S24.23,48.5,23.86,48.5Z"/><path class="cls-2" d="M31,40.21h0a1,1,0,0,1,0-1.42h0a1,1,0,0,1,1.45,0h0a1,1,0,0,1,0,1.42h0A1,1,0,0,1,31,40.21Z"/><path class="cls-2" d="M27,40.21h0a1,1,0,0,1,0-1.42h0a1,1,0,0,1,1.45,0h0a1,1,0,0,1,0,1.42h0A1,1,0,0,1,27,40.21Z"/></g></g></svg>