<svg xmlns="http://www.w3.org/2000/svg" viewBox="0 0 61 61"><defs><style>.cls-1{fill:#6078ea;stroke:#6078ea;stroke-width:2px;}.cls-1,.cls-2{stroke-linecap:round;stroke-linejoin:round;}.cls-2{fill:none;stroke:#42a7f8;stroke-width:4px;}.cls-3{fill:#fff;}</style></defs><title>アセット 2</title><g id="レイヤー_2" data-name="レイヤー 2"><g id="Icons_-_60px" data-name="Icons - 60px"><path class="cls-1" d="M60,25A24,24,0,0,0,36,1h0L31,31l29-6Z"/><path class="cls-2" d="M58,31A28,28,0,1,1,30,3"/><path class="cls-3" d="M36.16,9.1c-.55-.09-1,0-1.07.3L32.27,26.22c0,.25.36.54.91.63s1-.05,1.06-.3L37.07,9.73C37.11,9.47,36.7,9.19,36.16,9.1Z"/><path class="cls-3" d="M37.47,5.57a1,1,0,0,0-1.4-.24,1,1,0,0,0-.24,1.43,1,1,0,0,0,1.4.24A1,1,0,0,0,37.47,5.57Z"/></g></g></svg>