<svg xmlns="http://www.w3.org/2000/svg" viewBox="0 0 159.38 56.64"><defs><style>.cls-1{fill-rule:evenodd;}</style></defs><title>アセット 2</title><g id="レイヤー_2" data-name="レイヤー 2"><g id="レイヤー_1-2" data-name="レイヤー 1"><g id="Page-1"><g id="container_hero" data-name="container hero"><g id="logo_hero" data-name="logo hero"><path id="Fill-1" class="cls-1" d="M5.18,18.42c0,.78,0,1.23-.09,1.68-.46,6-1,12-.94,18A1.7,1.7,0,0,1,3,39.84a2.43,2.43,0,0,1-1.93-.21c-1.54-1.14-1-3.81-1-5.45.05-2.34.13-4.67.21-7,.07-2.11.33-4.21.41-6.32s.14-4.43.26-6.63c.16-2.84.38-5.68.65-8.5.12-1.29.74-1.89,1.68-2,1.29-.1,2.18.51,2,1.78-.27,2.54.76,4.59,1.91,6.69,1.84,3.37,3.56,6.82,5.44,10.17a9.55,9.55,0,0,0,1.95,2.55c.67.58,2.41,1.86,3.31,1.14A9.87,9.87,0,0,0,19.65,24c2.36-3.36,4.62-6.79,7-10.12a60.21,60.21,0,0,1,4-4.89C32.28,7.09,34,5.29,35.76,3.53a2.84,2.84,0,0,1,1.64-.7c1-.09,1.42.54,1.42,1.49,0,1.54-.09,3.08,0,4.61.24,3.15.59,6.28.89,9.42.12,1.36.25,2.73.35,4.09.13,1.9.19,3.79.34,5.69s.39,3.86.57,5.8a11.32,11.32,0,0,1,.06,1.43,1.9,1.9,0,0,1-1.52,2.08A2,2,0,0,1,37,36.11a22.91,22.91,0,0,1-.67-4c-.36-4.46-.65-8.93-1-13.39-.2-2.93-.36-5.87-.76-8.8a57.46,57.46,0,0,0-6.28,8.18C26.14,21.36,24,24.63,21.81,28c-1.82,2.83-3.67,2.78-6.31,2.37a7.31,7.31,0,0,1-4.81-3.12c-1.7-2.46-3.21-5.06-4.8-7.59l-.71-1.19"/><path id="Fill-4" class="cls-1" d="M126.75,33.31l.06,0a2.16,2.16,0,0,1,1.61-.13,14.66,14.66,0,0,0,7-.53,6.23,6.23,0,0,0,3.11-1.95A5,5,0,0,0,139,26a9.07,9.07,0,0,0-2.93-3.82,16.13,16.13,0,0,0-9.49-3.6,1.23,1.23,0,0,0-1,.29,1.16,1.16,0,0,0-.21.57,39.87,39.87,0,0,0-.1,8.53c.35,8.25-.49,16.64,1.4,24.67a7.16,7.16,0,0,1,.3,2.05,2.12,2.12,0,0,1-1,1.74,2.07,2.07,0,0,1-2.37-.53,5.33,5.33,0,0,1-1.12-2.33c-1.23-4.49-1.28-9.22-1.29-13.88,0-6.75,0-13.5.08-20.24a9.34,9.34,0,0,1,.19-2.24c.53-2.07,3.65-2.35,5.38-2.39a17.94,17.94,0,0,1,11.21,3.59,13.68,13.68,0,0,1,4.61,5.85,9.24,9.24,0,0,1-.2,7.33c-1.77,3.54-6.05,5.25-10,5.15a15.81,15.81,0,0,1-4-.62,3.32,3.32,0,0,1-1.8-1,1.37,1.37,0,0,1,0-1.83"/><path id="Fill-7" class="cls-1" d="M87.69,31.44a2,2,0,0,0,1.15.51c4.42,1,7.94-2.36,11.3-4.68a3.85,3.85,0,0,0,1.47-4.4c-.52-2.17-1.39-3.27-3.68-3.23a8.44,8.44,0,0,0-4.22,1.6,14.81,14.81,0,0,0-4.51,5,12.44,12.44,0,0,0-1.39,2.59,4.63,4.63,0,0,0-.37,2,1.25,1.25,0,0,0,.25.63m19-2.16c1.52.19,3,.45,4.41.54s3.18,0,4.77,0a2,2,0,0,1,2.16,2,2.2,2.2,0,0,1-2.15,2.08c-2.79,0-5.59.25-8.36-.46a6.34,6.34,0,0,1-4.16-2.87,2.68,2.68,0,0,0-.51-.48c-1.52,1.24-3,2.47-4.52,3.68a12.64,12.64,0,0,1-11.49,2.26,4.33,4.33,0,0,1-3.49-4.45,12.84,12.84,0,0,1,3.51-9.19,43,43,0,0,1,4.69-4.66c2.49-2.06,5.56-2.32,8.58-1.85a5.46,5.46,0,0,1,4.9,5.82c-.06.89,0,1.79,0,2.77,3.12.53,1.56,2.76,1.67,4.77"/><path id="Fill-9" class="cls-1" d="M67.82,26.81c.33-.45.65-.85.93-1.27,2.77-4.1,6.83-5.19,11.47-4.9a1.88,1.88,0,0,1,1.54,1.92,2,2,0,0,1-1.85,1.83c-1.15.16-2.31.24-3.44.47a8.38,8.38,0,0,0-6,4.94c-.64,1.32-1.16,2.71-1.73,4.07-.23.53-.42,1.07-.67,1.59A2,2,0,0,1,66,36.76,2.19,2.19,0,0,1,64.09,35a10.7,10.7,0,0,1-.4-2.8A24.72,24.72,0,0,0,62.53,23a3.19,3.19,0,0,1-.09-1.41A1.69,1.69,0,0,1,64,20.13a1.6,1.6,0,0,1,1.76,1c.71,1.8,1.32,3.64,2,5.64"/><path id="Fill-11" class="cls-1" d="M50.62,29.35c0-1.75,0-3.49,0-5.24,0-1.31.7-2,1.8-1.86a1.91,1.91,0,0,1,1.26.95,6.37,6.37,0,0,1,.39,2.31c0,3,0,5.93,0,8.89a3,3,0,0,1-.36,1.66,2.2,2.2,0,0,1-1.43,1c-.42,0-1-.49-1.29-.92a4.13,4.13,0,0,1-.36-1.83c0-1.64,0-3.28,0-4.92"/><path id="Fill-13" class="cls-1" d="M149.74,18.9c-.61-1.15.3-2.35,1.21-3,1.91-1.3,3.73-2.72,5.64-4,1.23-.85,1.93-.62,2.57.55a1.44,1.44,0,0,1-.6,2c-2.06,1.53-4.19,3-6.26,4.5-.69.51-2.06.86-2.56-.09"/><path id="Fill-16" class="cls-1" d="M58.13,14.62a1.21,1.21,0,0,1-.73,1.19,2.81,2.81,0,0,1-2.12-.39c-.73-.32-1.46-.64-2.19-1A15.39,15.39,0,0,1,49,11.89c-.3-.27-.75-.55-.83-1C48,9.45,49.78,9.5,50.68,9.62a10.52,10.52,0,0,1,3.72,1.3,10.37,10.37,0,0,1,2.42,1.8A6.45,6.45,0,0,1,58,14.11a1.16,1.16,0,0,1,.15.51"/><path id="Fill-18" class="cls-1" d="M144.76,1.34a2.37,2.37,0,0,1-.17,1.19c-.66,1.54-1.29,3.1-2,4.61a1.51,1.51,0,0,1-2,.94,1.71,1.71,0,0,1-.8-2.25c.6-1.57,1.23-3.12,1.93-4.65a1.67,1.67,0,0,1,2-1.1,1.54,1.54,0,0,1,1.08,1.26"/><path id="Fill-21" class="cls-1" d="M151.58,2.86a1.09,1.09,0,0,1,.23.41,3.25,3.25,0,0,1-.66,2.45c-.71,1-1.29,2.18-2,3.23a1.9,1.9,0,0,1-2.37.68c-.75-.39-1-1.19-.45-2.21.75-1.45,1.57-2.87,2.43-4.25a1.53,1.53,0,0,1,1.34-.77,2,2,0,0,1,1.45.46"/></g></g></g></g></g></svg>