<svg id="レイヤー_1" data-name="レイヤー 1" xmlns="http://www.w3.org/2000/svg" viewBox="0 0 1095.87 90.38"><defs><style>.cls-1{fill:#f1b239;}.cls-2{fill:#040000;}</style></defs><title>si-logo</title><path class="cls-1" d="M83.06,130.1a33.64,33.64,0,0,1-7.81-1,27.62,27.62,0,0,1-14.13-7.92,4.91,4.91,0,0,1-1.36-3.34A4.6,4.6,0,0,1,61,114.69a3.85,3.85,0,0,1,2.86-1.31,4.71,4.71,0,0,1,3.27,1.52,22.07,22.07,0,0,0,9.37,5.36,23.53,23.53,0,0,0,6.19.86,22.46,22.46,0,0,0,6.31-.93,23.73,23.73,0,0,0,10.94-7c4.88-5.3,7.08-11.69,6.72-19.51a26.15,26.15,0,0,0-7-17.08,23.4,23.4,0,0,0-10.74-6.75,21.89,21.89,0,0,0-12.5,0A22.34,22.34,0,0,0,66.2,76l-.73.79a4,4,0,0,1-3,1.43,3.85,3.85,0,0,1-2.9-1.36,4.66,4.66,0,0,1-1.16-4A5.66,5.66,0,0,1,59.94,70a31.13,31.13,0,0,1,14.41-8.87,30.77,30.77,0,0,1,8.48-1.22,29.86,29.86,0,0,1,5.74.56,31.48,31.48,0,0,1,17.12,9.81A35.1,35.1,0,0,1,113.35,84a38.15,38.15,0,0,1,1.38,16,35.83,35.83,0,0,1-9.17,20,31.4,31.4,0,0,1-13.68,8.87A30,30,0,0,1,83.06,130.1Z" transform="translate(-31.23 -40.29)"/><path class="cls-2" d="M58.84,100.08a23.8,23.8,0,0,1-4.76-.48,25.88,25.88,0,0,1-14.84-8.29A31.85,31.85,0,0,1,39.3,49,26.19,26.19,0,0,1,66,41.29c4.52,1.33,7.84,3.22,10.2,5.78a4.51,4.51,0,0,1,0,6.21,4,4,0,0,1-3,1.36,5,5,0,0,1-3.24-1.39,15.12,15.12,0,0,0-6-3.14,20.59,20.59,0,0,0-5.62-.82c-4.91,0-9.22,2-13.19,6.16a21,21,0,0,0-5.58,15.9A20.62,20.62,0,0,0,45.09,84.9,17.78,17.78,0,0,0,58.65,91h.17A17.05,17.05,0,0,0,72,85.23a4,4,0,0,1,3-1.43,3.84,3.84,0,0,1,2.9,1.37,4.78,4.78,0,0,1-.3,6.67A25.24,25.24,0,0,1,65.89,99,24.44,24.44,0,0,1,58.84,100.08Z" transform="translate(-31.23 -40.29)"/><path class="cls-2" d="M156.28,102.1c.46,3.88,1.34,6.78,2.67,8.7,2.41,3.5,6.56,5.24,12.42,5.24a22.53,22.53,0,0,0,8.56-1.38c4.16-1.77,6.24-5,6.24-9.84a7.7,7.7,0,0,0-3-6.52c-2-1.49-5.27-2.81-9.7-4l-7.55-2q-11.15-3-15.32-6.51-7.05-5.88-7.06-18.36,0-11.4,6.91-19t20.28-7.54A27.46,27.46,0,0,1,189.74,48q7.89,7.11,8.27,20.64H184q-.39-7.65-5.63-10.88a16.42,16.42,0,0,0-8.69-2.13q-5.77,0-9.23,2.76A9.33,9.33,0,0,0,157,66.11a7.61,7.61,0,0,0,3.39,6.79q2.19,1.5,9.28,3.52l12.25,3.5Q190,82.23,194,86.09q6.24,6,6.25,17.33,0,11.63-7.4,19.32T172,130.5q-13.8,0-21.69-7.58t-7.91-20.82Z" transform="translate(-31.23 -40.29)"/><path class="cls-2" d="M217.91,43.4h14.83V95.52q0,8.74,1.69,12.77,2.64,7.14,11.51,7.14t11.47-7.14q1.69-4,1.7-12.77V43.4h14.82V95.6q0,13.53-3.44,21.08-6.45,13.8-24.55,13.82t-24.59-13.82q-3.45-7.55-3.44-21.08Z" transform="translate(-31.23 -40.29)"/><path class="cls-2" d="M340.06,45.62a17.83,17.83,0,0,1,6.53,5.94,27.42,27.42,0,0,1,3.51,7.14,28.62,28.62,0,0,1,1.3,8.91,29.76,29.76,0,0,1-2.52,11.9,15,15,0,0,1-8.28,8.26,13.91,13.91,0,0,1,6.84,6.71c1.35,2.9,2,7.32,2,13.27v5.7a52.08,52.08,0,0,0,.39,7.89,7.28,7.28,0,0,0,2.69,4.84v2.13h-16.1c-.44-1.89-.76-3.4-.94-4.56a48.38,48.38,0,0,1-.62-7.3l-.1-7.89c-.06-5.41-.83-9-2.31-10.83s-4.24-2.7-8.31-2.7H309.9v33.28H295.65V43.4H329Q336.2,43.61,340.06,45.62ZM309.9,58.18V81h15.71c3.11,0,5.45-.45,7-1.37,2.75-1.62,4.13-4.8,4.13-9.57q0-7.71-4-10.36c-1.5-1-3.75-1.49-6.75-1.49Z" transform="translate(-31.23 -40.29)"/><path class="cls-2" d="M423.54,58.46h-37v18h33.92V91.2H386.59V113h38.65v15.27H372.35V43.4h51.2Z" transform="translate(-31.23 -40.29)"/><path class="cls-2" d="M491.42,128.31h-14.5V43.4h14.5Z" transform="translate(-31.23 -40.29)"/><path class="cls-2" d="M512.83,43.4h15.29l27.71,59.18V43.4h13.6v84.87H554.84L526.42,68.05v60.22H512.83Z" transform="translate(-31.23 -40.29)"/><path class="cls-2" d="M590.88,43.4h15.29l27.71,59.18V43.4h13.59v84.87H632.89L604.47,68.05v60.22H590.88Z" transform="translate(-31.23 -40.29)"/><path class="cls-2" d="M722.7,120.76q-7.92,9.9-22.88,9.91T677,120.76q-10.62-12.15-10.62-35,0-23.34,10.62-35,7.9-9.9,22.87-9.89t22.88,9.89q10.56,11.7,10.56,35Q733.26,108.6,722.7,120.76Zm-9.12-12.89q5.1-7.77,5.1-22.11t-5.1-22.09q-5.08-7.79-13.76-7.8T686,63.65q-5.16,7.74-5.16,22.11T686,107.87q5.16,7.74,13.83,7.77T713.58,107.87Z" transform="translate(-31.23 -40.29)"/><path class="cls-2" d="M789.91,43.4h15.16l-23.8,84.87H767.48L743.88,43.4h15.58l15.15,64.43Z" transform="translate(-31.23 -40.29)"/><path class="cls-2" d="M835,43.4h16.5l24.7,84.87h-15.8l-4.61-17.45H830l-4.73,17.45H810Zm-1,52.8h17.88L843,62.8Z" transform="translate(-31.23 -40.29)"/><path class="cls-2" d="M936,43.4v15H915.09v69.85H900.41V58.46h-21V43.4Z" transform="translate(-31.23 -40.29)"/><path class="cls-2" d="M965.86,128.31H951.35V43.4h14.49Z" transform="translate(-31.23 -40.29)"/><path class="cls-2" d="M1041.16,120.76q-7.9,9.9-22.87,9.91t-22.88-9.91q-10.62-12.15-10.61-35,0-23.34,10.61-35,7.9-9.9,22.88-9.89t22.87,9.89q10.56,11.7,10.56,35Q1051.72,108.6,1041.16,120.76ZM1032,107.87q5.1-7.77,5.1-22.11T1032,63.67q-5.08-7.79-13.75-7.8t-13.84,7.78q-5.16,7.74-5.16,22.11t5.16,22.11q5.17,7.74,13.84,7.77t13.75-7.77Z" transform="translate(-31.23 -40.29)"/><path class="cls-2" d="M1070.51,43.4h15.29l27.71,59.18V43.4h13.59v84.87h-14.58L1084.1,68.05v60.22h-13.59Z" transform="translate(-31.23 -40.29)"/></svg>