<?xml version="1.0" encoding="utf-8"?>
<!-- Generator: Adobe Illustrator 23.0.1, SVG Export Plug-In . SVG Version: 6.00 Build 0)  -->
<svg version="1.1" id="レイヤー_1" xmlns="http://www.w3.org/2000/svg" xmlns:xlink="http://www.w3.org/1999/xlink" x="0px"
	 y="0px" viewBox="0 0 1169.6 175.8" style="enable-background:new 0 0 1169.6 175.8;" xml:space="preserve">
<style type="text/css">
	.st0{fill:#F1B239;}
	.st1{fill:#040000;}
</style>
<title>si-logo.avg</title>
<path class="st0" d="M83.1,130.1c-2.6,0-5.3-0.4-7.8-1c-5.4-1.2-10.3-3.9-14.1-7.9c-0.9-0.9-1.3-2.1-1.4-3.3c0-1.2,0.5-2.3,1.2-3.1
	c0.7-0.8,1.8-1.3,2.9-1.3c1.2,0.1,2.4,0.6,3.3,1.5c2.6,2.5,5.8,4.4,9.4,5.4c2,0.6,4.1,0.8,6.2,0.9c2.1,0,4.3-0.3,6.3-0.9
	c4.2-1.3,8-3.7,10.9-7c4.9-5.3,7.1-11.7,6.7-19.5c-0.2-6.4-2.7-12.4-7-17.1c-2.9-3.2-6.6-5.5-10.7-6.8c-4.1-1.2-8.4-1.2-12.5-0.1
	C72.5,70.9,69,73,66.2,76l-0.7,0.8c-0.7,0.9-1.8,1.4-3,1.4c-1.1,0-2.2-0.5-2.9-1.4c-1-1.1-1.4-2.5-1.2-3.9c0.2-1.1,0.7-2.1,1.5-2.9
	c3.9-4.2,8.9-7.3,14.4-8.9c2.8-0.8,5.6-1.2,8.5-1.2c1.9,0,3.8,0.2,5.7,0.6c6.6,1.4,12.6,4.8,17.1,9.8c3.6,3.9,6.2,8.6,7.7,13.7
	c1.6,5.2,2.1,10.6,1.4,16c-0.9,7.4-4.1,14.4-9.2,19.9c-3.7,4.1-8.4,7.2-13.7,8.9C89,129.7,86,130.1,83.1,130.1z"/>
<path class="st1" d="M58.8,100.1c-1.6,0-3.2-0.2-4.8-0.5c-5.7-1-11-3.9-14.8-8.3C28.5,79.2,28.6,61,39.3,49c5-5.5,12.1-8.7,19.5-8.7
	c2.4,0,4.8,0.3,7.2,1c4.5,1.3,7.8,3.2,10.2,5.8c1.7,1.7,1.7,4.5,0,6.2c-0.8,0.9-1.9,1.4-3,1.4c-1.2,0-2.4-0.5-3.2-1.4
	c-1.7-1.5-3.8-2.6-6-3.1c-1.8-0.5-3.7-0.8-5.6-0.8c-4.9,0-9.2,2-13.2,6.2c-4,4.3-6,10.1-5.6,15.9c0.1,5,2.1,9.9,5.6,13.6
	c3.4,3.9,8.4,6.2,13.6,6.1h0.2c5,0.1,9.8-2,13.2-5.8c0.8-0.9,1.8-1.4,3-1.4c1.1,0,2.2,0.5,2.9,1.4c1.7,1.9,1.6,4.9-0.3,6.7
	c-3.2,3.4-7.2,5.9-11.7,7.2C63.6,99.7,61.2,100.1,58.8,100.1z"/>
<path class="st1" d="M156.3,102.1c0.5,3.9,1.3,6.8,2.7,8.7c2.4,3.5,6.6,5.2,12.4,5.2c2.9,0.1,5.8-0.4,8.6-1.4c4.2-1.8,6.2-5,6.2-9.8
	c0.1-2.5-1-5-3-6.5c-2-1.5-5.3-2.8-9.7-4l-7.5-2c-7.4-2-12.5-4.2-15.3-6.5c-4.7-3.9-7.1-10-7.1-18.4c0-7.6,2.3-13.9,6.9-19
	s11.4-7.6,20.3-7.5c7-0.2,13.9,2.4,19.1,7.1c5.3,4.7,8,11.6,8.3,20.6h-14c-0.3-5.1-2.1-8.7-5.6-10.9c-2.6-1.5-5.7-2.2-8.7-2.1
	c-3.8,0-6.9,0.9-9.2,2.8c-2.3,1.9-3.6,4.7-3.4,7.7c-0.2,2.7,1.1,5.3,3.4,6.8c1.5,1,4.6,2.2,9.3,3.5l12.2,3.5
	c5.4,1.5,9.4,3.6,12.1,6.2c4.2,4,6.2,9.8,6.2,17.3c0,7.8-2.5,14.2-7.4,19.3c-4.9,5.1-11.9,7.7-20.9,7.8c-9.2,0-16.4-2.5-21.7-7.6
	c-5.3-5.1-7.9-12-7.9-20.8H156.3z"/>
<path class="st1" d="M217.9,43.4h14.8v52.1c0,5.8,0.6,10.1,1.7,12.8c1.8,4.8,5.6,7.1,11.5,7.1c5.9,0,9.7-2.4,11.5-7.1
	c1.1-2.7,1.7-6.9,1.7-12.8V43.4h14.8v52.2c0,9-1.1,16-3.4,21.1c-4.3,9.2-12.5,13.8-24.5,13.8s-20.3-4.6-24.6-13.8
	c-2.3-5-3.4-12.1-3.4-21.1V43.4z"/>
<path class="st1" d="M340.1,45.6c2.6,1.4,4.9,3.4,6.5,5.9c1.5,2.2,2.7,4.6,3.5,7.1c0.9,2.9,1.3,5.9,1.3,8.9c0,4.1-0.9,8.1-2.5,11.9
	c-1.5,3.8-4.5,6.7-8.3,8.3c3,1.4,5.4,3.7,6.8,6.7c1.3,2.9,2,7.3,2,13.3v5.7c-0.1,2.6,0.1,5.3,0.4,7.9c0.2,1.9,1.2,3.6,2.7,4.8v2.1
	h-16.1c-0.4-1.9-0.8-3.4-0.9-4.6c-0.4-2.4-0.6-4.9-0.6-7.3l-0.1-7.9c-0.1-5.4-0.8-9-2.3-10.8s-4.2-2.7-8.3-2.7h-14.2v33.3h-14.2
	V43.4H329C333.8,43.5,337.5,44.3,340.1,45.6z M309.9,58.2V81h15.7c3.1,0,5.5-0.4,7-1.4c2.8-1.6,4.1-4.8,4.1-9.6
	c0-5.1-1.3-8.6-4-10.4c-1.5-1-3.8-1.5-6.8-1.5H309.9z"/>
<path class="st1" d="M423.5,58.5h-37v18h33.9v14.7h-33.9V113h38.7v15.3h-52.9V43.4h51.2L423.5,58.5z"/>
<path class="st1" d="M491.4,128.3h-14.5V43.4h14.5V128.3z"/>
<path class="st1" d="M512.8,43.4h15.3l27.7,59.2V43.4h13.6v84.9h-14.6L526.4,68v60.2h-13.6V43.4z"/>
<path class="st1" d="M590.9,43.4h15.3l27.7,59.2V43.4h13.6v84.9h-14.6L604.5,68v60.2h-13.6V43.4z"/>
<path class="st1" d="M722.7,120.8c-5.3,6.6-12.9,9.9-22.9,9.9s-17.6-3.3-22.9-9.9c-7.1-8.1-10.6-19.8-10.6-35
	c0-15.6,3.5-27.2,10.6-35c5.3-6.6,12.9-9.9,22.9-9.9s17.6,3.3,22.9,9.9c7,7.8,10.6,19.5,10.6,35C733.3,101,729.7,112.7,722.7,120.8z
	 M713.6,107.9c3.4-5.2,5.1-12.6,5.1-22.1s-1.7-16.9-5.1-22.1c-3.4-5.2-8-7.8-13.8-7.8s-10.4,2.6-13.8,7.8
	c-3.4,5.2-5.2,12.5-5.2,22.1s1.7,16.9,5.2,22.1c3.4,5.2,8.1,7.8,13.8,7.8S710.2,113.1,713.6,107.9z"/>
<path class="st1" d="M789.9,43.4h15.2l-23.8,84.9h-13.8l-23.6-84.9h15.6l15.2,64.4L789.9,43.4z"/>
<path class="st1" d="M834.9,43.4h16.5l24.7,84.9h-15.8l-4.6-17.4H830l-4.7,17.4H810L834.9,43.4z M833.9,96.2h17.9L843,62.8
	L833.9,96.2z"/>
<path class="st1" d="M936,43.4v15h-20.9v69.9h-14.7V58.5h-21V43.4H936z"/>
<path class="st1" d="M965.9,128.3h-14.5V43.4h14.5L965.9,128.3z"/>
<path class="st1" d="M1041.2,120.8c-5.3,6.6-12.9,9.9-22.9,9.9c-10,0-17.6-3.3-22.9-9.9c-7.1-8.1-10.6-19.8-10.6-35
	c0-15.6,3.5-27.2,10.6-35c5.3-6.6,12.9-9.9,22.9-9.9c10,0,17.6,3.3,22.9,9.9c7,7.8,10.6,19.5,10.6,35
	C1051.7,101,1048.2,112.7,1041.2,120.8z M1032,107.9c3.4-5.2,5.1-12.6,5.1-22.1s-1.7-16.9-5.1-22.1c-3.4-5.2-8-7.8-13.8-7.8
	c-5.8,0-10.4,2.6-13.8,7.8c-3.4,5.2-5.2,12.5-5.2,22.1s1.7,16.9,5.2,22.1c3.5,5.2,8.1,7.8,13.8,7.8
	C1024.1,115.7,1028.6,113.1,1032,107.9L1032,107.9z"/>
<path class="st1" d="M1070.5,43.4h15.3l27.7,59.2V43.4h13.6v84.9h-14.6L1084.1,68v60.2h-13.6V43.4z"/>
</svg>
